<mxfile host="Electron" agent="Mozilla/5.0 (Windows NT 10.0; Win64; x64) AppleWebKit/537.36 (KHTML, like Gecko) draw.io/26.2.15 Chrome/134.0.6998.205 Electron/35.2.1 Safari/537.36" version="26.2.15">
  <diagram id="Defense-In-Depth" name="Defense in Depth">
    <mxGraphModel dx="2032" dy="828" grid="1" gridSize="10" guides="1" tooltips="1" connect="1" arrows="1" fold="1" page="1" pageScale="1" pageWidth="1654" pageHeight="1169" math="0" shadow="0">
      <root>
        <mxCell id="0" />
        <mxCell id="1" parent="0" />
        <mxCell id="title" value="Defense in Depth - SIRE Multi-Layer Security Architecture" style="text;html=1;strokeColor=none;fillColor=none;align=center;verticalAlign=middle;whiteSpace=wrap;rounded=0;fontSize=24;fontStyle=1;fontColor=#2F5496;" parent="1" vertex="1">
          <mxGeometry x="327" y="20" width="1000" height="40" as="geometry" />
        </mxCell>
        <mxCell id="concepts-section" value="" style="rounded=1;whiteSpace=wrap;html=1;fillColor=#F8F9FA;strokeColor=#E0E0E0;strokeWidth=1;" parent="1" vertex="1">
          <mxGeometry x="20" y="80" width="380" height="500" as="geometry" />
        </mxCell>
        <mxCell id="native-title" value="Native network security controls&#xa;vs. third-party" style="text;html=1;strokeColor=none;fillColor=none;align=left;verticalAlign=top;whiteSpace=wrap;rounded=0;fontSize=18;fontStyle=1;fontColor=#1565C0;" parent="1" vertex="1">
          <mxGeometry x="40" y="100" width="340" height="50" as="geometry" />
        </mxCell>
        <mxCell id="native-benefits" value="• Fill the gap approach&#xa;• Align with existing security investments&#xa;• Unified approach" style="text;html=1;strokeColor=none;fillColor=none;align=left;verticalAlign=top;whiteSpace=wrap;rounded=0;fontSize=14;fontColor=#424242;" parent="1" vertex="1">
          <mxGeometry x="60" y="160" width="320" height="80" as="geometry" />
        </mxCell>
        <mxCell id="layered-title" value="Layered defense" style="text;html=1;strokeColor=none;fillColor=none;align=left;verticalAlign=top;whiteSpace=wrap;rounded=0;fontSize=18;fontStyle=1;fontColor=#1565C0;" parent="1" vertex="1">
          <mxGeometry x="40" y="260" width="200" height="30" as="geometry" />
        </mxCell>
        <mxCell id="layered-benefits" value="• Stop attacks at Network edge&#xa;• Adopt a Zero Trust approach&#xa;• Control routing behavior&#xa;• Logically segment subnets&#xa;• Use virtual network appliances&#xa;• Use Service Endpoints to restrict access&#xa;  to PaaS resources" style="text;html=1;strokeColor=none;fillColor=none;align=left;verticalAlign=top;whiteSpace=wrap;rounded=0;fontSize=14;fontColor=#424242;" parent="1" vertex="1">
          <mxGeometry x="60" y="300" width="320" height="160" as="geometry" />
        </mxCell>
        <mxCell id="zero-trust-box" value="" style="rounded=1;whiteSpace=wrap;html=1;fillColor=#E8F5E8;strokeColor=#4CAF50;strokeWidth=2;" parent="1" vertex="1">
          <mxGeometry x="40" y="480" width="340" height="80" as="geometry" />
        </mxCell>
        <mxCell id="zero-trust-title" value="Zero Trust Security Framework" style="text;html=1;strokeColor=none;fillColor=none;align=center;verticalAlign=top;whiteSpace=wrap;rounded=0;fontSize=14;fontStyle=1;fontColor=#2E7D32;" parent="1" vertex="1">
          <mxGeometry x="50" y="490" width="320" height="20" as="geometry" />
        </mxCell>
        <mxCell id="zero-trust-principles" value="Never Trust • Always Verify • Least Privilege Access" style="text;html=1;strokeColor=none;fillColor=none;align=center;verticalAlign=middle;whiteSpace=wrap;rounded=0;fontSize=12;fontColor=#2E7D32;" parent="1" vertex="1">
          <mxGeometry x="50" y="520" width="320" height="30" as="geometry" />
        </mxCell>
        <mxCell id="ring6" value="" style="ellipse;whiteSpace=wrap;html=1;fillColor=none;strokeColor=#FF9800;strokeWidth=3;" parent="1" vertex="1">
          <mxGeometry x="500" y="100" width="600" height="460" as="geometry" />
        </mxCell>
        <mxCell id="ring5" value="" style="ellipse;whiteSpace=wrap;html=1;fillColor=none;strokeColor=#9C27B0;strokeWidth=3;" parent="1" vertex="1">
          <mxGeometry x="540" y="130" width="520" height="400" as="geometry" />
        </mxCell>
        <mxCell id="ring4" value="" style="ellipse;whiteSpace=wrap;html=1;fillColor=none;strokeColor=#F44336;strokeWidth=3;" parent="1" vertex="1">
          <mxGeometry x="580" y="160" width="440" height="340" as="geometry" />
        </mxCell>
        <mxCell id="ring3" value="" style="ellipse;whiteSpace=wrap;html=1;fillColor=none;strokeColor=#2196F3;strokeWidth=3;" parent="1" vertex="1">
          <mxGeometry x="620" y="190" width="360" height="280" as="geometry" />
        </mxCell>
        <mxCell id="ring2" value="" style="ellipse;whiteSpace=wrap;html=1;fillColor=none;strokeColor=#4CAF50;strokeWidth=3;" parent="1" vertex="1">
          <mxGeometry x="660" y="220" width="280" height="220" as="geometry" />
        </mxCell>
        <mxCell id="core" value="" style="ellipse;whiteSpace=wrap;html=1;fillColor=#E3F2FD;strokeColor=#1976D2;strokeWidth=4;" parent="1" vertex="1">
          <mxGeometry x="720" y="270" width="160" height="120" as="geometry" />
        </mxCell>
        <mxCell id="core-label" value="Azure&#xa;Deployments" style="text;html=1;strokeColor=none;fillColor=none;align=center;verticalAlign=middle;whiteSpace=wrap;rounded=0;fontSize=16;fontStyle=1;fontColor=#1976D2;" parent="1" vertex="1">
          <mxGeometry x="760" y="315" width="80" height="30" as="geometry" />
        </mxCell>
        <mxCell id="internet" value="" style="ellipse;shape=cloud;whiteSpace=wrap;html=1;fillColor=#E3F2FD;strokeColor=#1976D2;strokeWidth=2;" parent="1" vertex="1">
          <mxGeometry x="1390" y="250" width="120" height="80" as="geometry" />
        </mxCell>
        <mxCell id="internet-label" value="Internet" style="text;html=1;strokeColor=none;fillColor=none;align=center;verticalAlign=middle;whiteSpace=wrap;rounded=0;fontSize=14;fontStyle=1;fontColor=#1976D2;" parent="1" vertex="1">
          <mxGeometry x="1415" y="290" width="70" height="20" as="geometry" />
        </mxCell>
        <mxCell id="nsg-icon" value="" style="rounded=1;whiteSpace=wrap;html=1;fillColor=#E8F5E8;strokeColor=#4CAF50;strokeWidth=2;" parent="1" vertex="1">
          <mxGeometry x="1010" y="240" width="100" height="40" as="geometry" />
        </mxCell>
        <mxCell id="nsg-label" value="NSG/ASG&#xa;and UDR" style="text;html=1;strokeColor=none;fillColor=none;align=center;verticalAlign=middle;whiteSpace=wrap;rounded=0;fontSize=11;fontStyle=1;fontColor=#2E7D32;" parent="1" vertex="1">
          <mxGeometry x="1020" y="250" width="80" height="20" as="geometry" />
        </mxCell>
        <mxCell id="appgw-icon" value="" style="rounded=1;whiteSpace=wrap;html=1;fillColor=#E3F2FD;strokeColor=#2196F3;strokeWidth=2;" parent="1" vertex="1">
          <mxGeometry x="1010" y="295" width="100" height="40" as="geometry" />
        </mxCell>
        <mxCell id="appgw-label" value="Application&#xa;Gateway with WAF" style="text;html=1;strokeColor=none;fillColor=none;align=center;verticalAlign=middle;whiteSpace=wrap;rounded=0;fontSize=10;fontStyle=1;fontColor=#1976D2;" parent="1" vertex="1">
          <mxGeometry x="1020" y="300" width="80" height="30" as="geometry" />
        </mxCell>
        <mxCell id="firewall-icon" value="" style="rounded=1;whiteSpace=wrap;html=1;fillColor=#FFEBEE;strokeColor=#F44336;strokeWidth=2;" parent="1" vertex="1">
          <mxGeometry x="1010" y="350" width="100" height="40" as="geometry" />
        </mxCell>
        <mxCell id="firewall-label" value="Azure&#xa;Firewall" style="text;html=1;strokeColor=none;fillColor=none;align=center;verticalAlign=middle;whiteSpace=wrap;rounded=0;fontSize=11;fontStyle=1;fontColor=#D32F2F;" parent="1" vertex="1">
          <mxGeometry x="1020" y="360" width="80" height="20" as="geometry" />
        </mxCell>
        <mxCell id="vnet-icon" value="" style="rounded=1;whiteSpace=wrap;html=1;fillColor=#F3E5F5;strokeColor=#9C27B0;strokeWidth=2;" parent="1" vertex="1">
          <mxGeometry x="1010" y="405" width="100" height="40" as="geometry" />
        </mxCell>
        <mxCell id="vnet-label" value="Virtual&#xa;Network Isolation" style="text;html=1;strokeColor=none;fillColor=none;align=center;verticalAlign=middle;whiteSpace=wrap;rounded=0;fontSize=10;fontStyle=1;fontColor=#7B1FA2;" parent="1" vertex="1">
          <mxGeometry x="1020" y="410" width="80" height="30" as="geometry" />
        </mxCell>
        <mxCell id="ddos-icon" value="" style="rounded=1;whiteSpace=wrap;html=1;fillColor=#FFF3E0;strokeColor=#FF9800;strokeWidth=2;" parent="1" vertex="1">
          <mxGeometry x="1010" y="460" width="100" height="40" as="geometry" />
        </mxCell>
        <mxCell id="ddos-label" value="DDoS&#xa;Protection" style="text;html=1;strokeColor=none;fillColor=none;align=center;verticalAlign=middle;whiteSpace=wrap;rounded=0;fontSize=11;fontStyle=1;fontColor=#F57C00;" parent="1" vertex="1">
          <mxGeometry x="1020" y="470" width="80" height="20" as="geometry" />
        </mxCell>
        <mxCell id="frontdoor-icon" value="" style="rounded=1;whiteSpace=wrap;html=1;fillColor=#FFF8E1;strokeColor=#FFC107;strokeWidth=2;" parent="1" vertex="1">
          <mxGeometry x="1010" y="515" width="100" height="40" as="geometry" />
        </mxCell>
        <mxCell id="frontdoor-label" value="Front Door&#xa;with WAF" style="text;html=1;strokeColor=none;fillColor=none;align=center;verticalAlign=middle;whiteSpace=wrap;rounded=0;fontSize=11;fontStyle=1;fontColor=#F57F17;" parent="1" vertex="1">
          <mxGeometry x="1020" y="525" width="80" height="20" as="geometry" />
        </mxCell>
        <mxCell id="internet-arrow" value="" style="endArrow=classic;html=1;strokeColor=#1976D2;strokeWidth=3;entryX=1;entryY=0.5;exitX=0;exitY=0.5;" parent="1" source="internet" target="frontdoor-icon" edge="1">
          <mxGeometry width="50" height="50" relative="1" as="geometry">
            <mxPoint x="1150" y="290" as="sourcePoint" />
            <mxPoint x="1120" y="535" as="targetPoint" />
            <Array as="points">
              <mxPoint x="1130" y="290" />
              <mxPoint x="1130" y="535" />
            </Array>
          </mxGeometry>
        </mxCell>
        <mxCell id="legend-box" value="" style="rounded=1;whiteSpace=wrap;html=1;fillColor=#F8F9FA;strokeColor=#E0E0E0;strokeWidth=1;" parent="1" vertex="1">
          <mxGeometry x="1150" y="80" width="200" height="140" as="geometry" />
        </mxCell>
        <mxCell id="legend-title" value="Defense Layers" style="text;html=1;strokeColor=none;fillColor=none;align=center;verticalAlign=top;whiteSpace=wrap;rounded=0;fontSize=14;fontStyle=1;fontColor=#2F5496;" parent="1" vertex="1">
          <mxGeometry x="1170" y="90" width="160" height="20" as="geometry" />
        </mxCell>
        <mxCell id="legend-content" value="Outermost → Innermost:&#xa;• Global Edge Protection&#xa;• Network Perimeter&#xa;• Application Layer&#xa;• Network Controls&#xa;• Resource Access&#xa;• Core Deployments" style="text;html=1;strokeColor=none;fillColor=none;align=left;verticalAlign=top;whiteSpace=wrap;rounded=0;fontSize=10;fontColor=#424242;" parent="1" vertex="1">
          <mxGeometry x="1160" y="115" width="180" height="95" as="geometry" />
        </mxCell>
      </root>
    </mxGraphModel>
  </diagram>
</mxfile>
